<?xml version="1.0" encoding="UTF-8"?>
<svg xmlns="http://www.w3.org/2000/svg" xmlns:xlink="http://www.w3.org/1999/xlink" width="480.64pt" height="450.46pt" viewBox="0 0 480.64 450.46" version="1.1">
<defs>
<clipPath id="clip1">
  <path d="M 256 349 L 480.640625 349 L 480.640625 450.460938 L 256 450.460938 Z M 256 349 "/>
</clipPath>
<clipPath id="clip2">
  <path d="M 0 346 L 239 346 L 239 450.460938 L 0 450.460938 Z M 0 346 "/>
</clipPath>
</defs>
<g id="surface1">
<path style=" stroke:none;fill-rule:nonzero;fill:rgb(89.399719%,75.299072%,16.899109%);fill-opacity:1;" d="M 128.238281 246.769531 C 103.53125 134.050781 268.628906 81.664063 286.628906 -0.00390625 L 286.628906 37.332031 C 282.296875 88.664063 130.632813 175.664063 128.238281 246.769531 "/>
<path style=" stroke:none;fill-rule:nonzero;fill:rgb(89.399719%,75.299072%,16.899109%);fill-opacity:1;" d="M 143.183594 300.128906 C 85.585938 206.4375 256.796875 145.664063 285.628906 55.664063 L 285.628906 90.996094 C 276.296875 155.664063 115.796875 228.164063 143.183594 300.128906 "/>
<path style=" stroke:none;fill-rule:nonzero;fill:rgb(89.399719%,75.299072%,16.899109%);fill-opacity:1;" d="M 285.628906 106.164063 C 284.628906 126.382813 268.996094 144.273438 268.996094 144.273438 C 260.796875 163.164063 176.34375 226.972656 158.796875 260.164063 C 127.128906 320.074219 176.296875 332.800781 176.296875 332.800781 C 121.796875 276.164063 236.796875 232.664063 278.289063 162.515625 C 288.769531 144.796875 286.332031 91.976563 285.628906 106.164063 "/>
<path style=" stroke:none;fill-rule:nonzero;fill:rgb(89.399719%,75.299072%,16.899109%);fill-opacity:1;" d="M 314.875 143.949219 C 331.132813 152.050781 335.308594 166.992188 328.632813 184.050781 C 315.132813 218.550781 273.855469 241.949219 262.675781 269.050781 C 254.632813 288.550781 255.636719 322.753906 255.632813 322.761719 C 293.132813 233.355469 346.875 251.769531 346.875 171.449219 C 346.875 157.050781 327.632813 143.949219 314.875 143.949219 "/>
<path style=" stroke:none;fill-rule:nonzero;fill:rgb(89.399719%,75.299072%,16.899109%);fill-opacity:1;" d="M 350.632813 174.546875 C 353.632813 188.546875 364.621094 213.546875 327.132813 249.769531 C 311.09375 265.269531 265.632813 308.046875 258.632813 332.546875 C 255.964844 341.890625 256.597656 375.050781 256.597656 375.050781 C 273.738281 336.523438 292.378906 313.789063 323.132813 286.546875 C 358.132813 255.546875 380.636719 207.546875 350.632813 174.546875 "/>
<path style=" stroke:none;fill-rule:nonzero;fill:rgb(89.399719%,75.299072%,16.899109%);fill-opacity:1;" d="M 366.359375 229.964844 C 371.390625 284.632813 296.375 325.34375 264.132813 377.472656 C 263.941406 377.777344 263.761719 378.101563 263.585938 378.433594 L 288.308594 378.433594 C 329.421875 328.757813 389.164063 299.609375 366.359375 229.964844 "/>
<path style=" stroke:none;fill-rule:nonzero;fill:rgb(89.399719%,75.299072%,16.899109%);fill-opacity:1;" d="M 258.09375 433.640625 C 261.789063 420.402344 267.371094 408.652344 274.097656 397.933594 L 258.808594 397.933594 C 256.988281 414.628906 258.09375 433.640625 258.09375 433.640625 "/>
<g clip-path="url(#clip1)" clip-rule="nonzero">
<path style=" stroke:none;fill-rule:nonzero;fill:rgb(21.199036%,40.79895%,28.599548%);fill-opacity:1;" d="M 329.300781 349.878906 C 311.242188 376.960938 262.957031 403.1875 256.847656 450.460938 C 256.847656 450.460938 266.128906 424.109375 301.902344 421.960938 C 352.074219 418.945313 402.800781 440.960938 495.800781 450.460938 L 436.300781 367.460938 C 385.617188 361.484375 329.300781 349.878906 329.300781 349.878906 "/>
</g>
<g clip-path="url(#clip2)" clip-rule="nonzero">
<path style=" stroke:none;fill-rule:nonzero;fill:rgb(21.199036%,40.79895%,28.599548%);fill-opacity:1;" d="M 210.554688 375.550781 L 238.402344 375.550781 C 238.277344 368.351563 238.003906 363.28125 237.5 362.21875 C 220.324219 325.890625 131.347656 361.71875 60.5 368.71875 L 0 450.21875 C 149.03125 428.726563 216 398.015625 237.5 450.21875 C 237.5 450.21875 238.304688 420.089844 238.464844 395.050781 L 210.554688 395.050781 "/>
</g>
</g>
</svg>
